<svg xmlns="http://www.w3.org/2000/svg" xmlns:xlink="http://www.w3.org/1999/xlink" width="384" zoomAndPan="magnify" viewBox="0 0 288 287.999989" height="384" preserveAspectRatio="xMidYMid meet" version="1.0"><defs><clipPath id="f656f5076a"><path d="M 40.5 0 L 247.5 0 L 247.5 288 L 40.5 288 Z M 40.5 0 " clip-rule="nonzero"/></clipPath></defs><g clip-path="url(#f656f5076a)"><path fill="#ffffff" d="M 247.347656 82.09375 C 247.464844 127.582031 210.492188 164.625 165.03125 164.625 L 120.1875 164.625 C 100.746094 164.625 84.984375 180.390625 84.984375 199.832031 L 84.984375 245.148438 L 42.132812 288 L 42.132812 210.921875 C 42.132812 161.691406 82.039062 121.777344 131.277344 121.777344 L 165.039062 121.777344 C 186.742188 121.777344 204.417969 104.164062 204.507812 82.46875 C 204.597656 60.675781 186.582031 42.839844 164.777344 42.839844 L 83.386719 42.839844 L 40.535156 0 L 164.644531 0 C 210.078125 0 247.230469 36.660156 247.347656 82.09375 Z M 247.347656 82.09375 " fill-opacity="1" fill-rule="nonzero"/></g></svg>